<?xml version="1.0" encoding="UTF-8" standalone="no"?><!DOCTYPE svg PUBLIC "-//W3C//DTD SVG 1.1//EN" "http://www.w3.org/Graphics/SVG/1.1/DTD/svg11.dtd"><svg width="100%" height="100%" viewBox="0 0 1200 1200" version="1.1" xmlns="http://www.w3.org/2000/svg" xmlns:xlink="http://www.w3.org/1999/xlink" xml:space="preserve" xmlns:serif="http://www.serif.com/" style="fill-rule:evenodd;clip-rule:evenodd;stroke-linejoin:round;stroke-miterlimit:2;"><path d="M1048.63,945.265c3.55,-11.617 -2.547,-20.012 -13.607,-18.736l-721.181,83.21c-11.06,1.277 -22.922,11.744 -26.472,23.361l-12.866,42.096c-3.55,11.617 2.547,20.013 13.607,18.736l721.181,-83.21c11.06,-1.276 22.922,-11.744 26.472,-23.361l12.866,-42.096Z" style="fill:#8a69d4;"/><path d="M280.846,987.328c-5.713,-12.51 -17.182,-15.047 -25.597,-5.662l-117.012,130.508c-8.414,9.384 -10.608,27.16 -4.895,39.67l20.702,45.332c5.713,12.51 17.183,15.047 25.597,5.662l117.012,-130.507c8.414,-9.385 10.608,-27.161 4.895,-39.671l-20.702,-45.332Z" style="fill:#8a69d4;"/><path d="M207.972,1066.58c-9.96,8.236 -9.464,19.268 1.104,24.62l38.299,19.396c10.569,5.353 27.235,3.012 37.194,-5.224l272.811,-225.608c9.959,-8.236 9.464,-19.268 -1.105,-24.62l-38.299,-19.396c-10.569,-5.353 -27.235,-3.012 -37.194,5.224l-272.81,225.608Z" style="fill:#8a69d4;"/><path d="M176.047,1105.41c-5.721,-12.529 -17.209,-15.07 -25.636,-5.671l-171.029,190.754c-8.427,9.4 -10.624,27.203 -4.902,39.732l20.734,45.403c5.722,12.529 17.209,15.07 25.636,5.671l171.029,-190.755c8.427,-9.399 10.624,-27.202 4.902,-39.732l-20.734,-45.402Z" style="fill:#8a69d4;"/><path d="M983.116,61.558c0,-19.993 -16.232,-36.225 -36.225,-36.225l-72.449,0c-19.993,0 -36.225,16.232 -36.225,36.225l0,439.551c0,19.993 16.232,36.224 36.225,36.224l72.449,0c19.993,0 36.225,-16.231 36.225,-36.224l0,-439.551Z" style="fill:#ada79e;"/><path d="M1158.67,242.933c-0,-21.193 -17.207,-38.4 -38.4,-38.4l-419.2,0c-21.194,0 -38.4,17.207 -38.4,38.4l-0,76.8c-0,21.194 17.206,38.4 38.4,38.4l419.2,0c21.193,0 38.4,-17.206 38.4,-38.4l-0,-76.8Z" style="fill:#ada79e;"/><path d="M325.213,145.876c-11.386,-11.797 -21.575,-11.318 -22.739,1.067l-35.84,381.147c-1.165,12.385 7.133,32.018 18.519,43.814l41.259,42.747c11.385,11.797 21.575,11.319 22.739,-1.067l35.84,-381.147c1.165,-12.385 -7.133,-32.018 -18.519,-43.814l-41.259,-42.747Z" style="fill:#8a69d4;"/><path d="M223.346,995.166c-1.395,14.943 8.196,23.713 21.404,19.572l47.861,-15.008c13.208,-4.142 25.063,-19.636 26.457,-34.58l49.339,-528.701c1.395,-14.943 -8.196,-23.713 -21.404,-19.572l-47.861,15.008c-13.208,4.142 -25.063,19.636 -26.458,34.58l-49.338,528.701Z" style="fill:#8a69d4;"/><path d="M247.439,803.359c-9.509,9.838 -7.713,21.093 4.008,25.118l42.475,14.586c11.721,4.025 28.957,-0.694 38.466,-10.532l299.869,-310.255c9.509,-9.838 7.713,-21.093 -4.009,-25.119l-42.474,-14.586c-11.721,-4.025 -28.957,0.695 -38.466,10.533l-299.869,310.255Z" style="fill:#8a69d4;"/><path d="M245.944,971.021c4.743,14.522 13.798,18.224 20.207,8.261l23.226,-36.101c6.409,-9.963 7.762,-29.841 3.018,-44.363l-190.046,-581.839c-4.743,-14.522 -13.798,-18.224 -20.207,-8.261l-23.226,36.101c-6.409,9.963 -7.761,29.841 -3.018,44.363l190.046,581.839Z" style="fill:#8a69d4;"/></svg>