<?xml version="1.0" encoding="UTF-8" standalone="no"?>
<!DOCTYPE svg PUBLIC "-//W3C//DTD SVG 1.1//EN" "http://www.w3.org/Graphics/SVG/1.1/DTD/svg11.dtd">
<svg width="100%" height="100%" viewBox="0 0 1500 1500" version="1.1" xmlns="http://www.w3.org/2000/svg" xmlns:xlink="http://www.w3.org/1999/xlink" xml:space="preserve" xmlns:serif="http://www.serif.com/" style="fill-rule:evenodd;clip-rule:evenodd;stroke-linecap:round;stroke-linejoin:round;stroke-miterlimit:1.5;">
    <g transform="matrix(1.01238,0,0,1.38889,25.2939,-324.405)">
        <path d="M1322.92,540.536C1322.92,419.607 1188.22,321.429 1022.32,321.429L421.131,321.429C255.228,321.429 120.536,419.607 120.536,540.536L120.536,1013.04C120.536,1133.96 255.228,1232.14 421.131,1232.14L1022.32,1232.14C1188.22,1232.14 1322.92,1133.96 1322.92,1013.04L1322.92,540.536Z" style="fill:white;stroke:black;stroke-width:82.18px;"/>
    </g>
    <g transform="matrix(0.708112,-0.580262,0.728225,0.888675,-336.574,522.826)">
        <ellipse cx="783.78" cy="731.384" rx="316.964" ry="349.702" style="fill:none;stroke:black;stroke-width:82.24px;"/>
    </g>
    <g transform="matrix(0.975072,-0.865878,1.10108,1.23993,-280.422,441.11)">
        <path d="M531.25,485.48C531.25,479.113 524.676,473.943 516.58,473.943L400.087,473.943C391.99,473.943 385.417,479.113 385.417,485.48L385.417,590.383C385.417,596.75 391.99,601.92 400.087,601.92L516.58,601.92C524.676,601.92 531.25,596.75 531.25,590.383L531.25,485.48Z" style="fill:rgb(82,198,157);stroke:black;stroke-width:18.41px;"/>
    </g>
    <path d="M634.516,688.293L790.129,730.254L895.387,726.92L790.129,730.254L755.506,834.062L790.129,730.254L755.506,590.015" style="fill:none;stroke:black;stroke-width:24.57px;"/>
    <g transform="matrix(1.46158,0,0,1.85946,391.916,-326.415)">
        <path d="M531.25,531.258C531.25,499.625 498.577,473.943 458.333,473.943C418.09,473.943 385.417,499.625 385.417,531.258L385.417,544.606C385.417,576.238 418.09,601.92 458.333,601.92C498.577,601.92 531.25,576.238 531.25,544.606L531.25,531.258Z" style="fill:rgb(82,198,157);stroke:black;stroke-width:16.42px;"/>
    </g>
    <g transform="matrix(1.46158,0,0,1.85946,156.797,-612.129)">
        <path d="M531.25,531.258C531.25,499.625 498.577,473.943 458.333,473.943C418.09,473.943 385.417,499.625 385.417,531.258L385.417,544.606C385.417,576.238 418.09,601.92 458.333,601.92C498.577,601.92 531.25,576.238 531.25,544.606L531.25,531.258Z" style="fill:rgb(82,198,157);stroke:black;stroke-width:16.42px;"/>
    </g>
    <g transform="matrix(1.46158,0,0,1.85946,353.226,15.8473)">
        <path d="M531.25,531.258C531.25,499.625 498.577,473.943 458.333,473.943C418.09,473.943 385.417,499.625 385.417,531.258L385.417,544.606C385.417,576.238 418.09,601.92 458.333,601.92C498.577,601.92 531.25,576.238 531.25,544.606L531.25,531.258Z" style="fill:rgb(82,198,157);stroke:black;stroke-width:16.42px;"/>
    </g>
    <g transform="matrix(1.64525,0,0,1.83621,-266.547,-577.862)">
        <path d="M531.25,537.932C531.25,502.616 499.25,473.943 459.835,473.943L456.831,473.943C417.417,473.943 385.417,502.616 385.417,537.932C385.417,573.248 417.417,601.92 456.831,601.92L459.835,601.92C499.25,601.92 531.25,573.248 531.25,537.932Z" style="fill:rgb(82,198,157);stroke:black;stroke-width:15.75px;"/>
    </g>
    <g transform="matrix(1.64525,0,0,1.83621,-306.294,-234.548)">
        <path d="M531.25,537.932C531.25,502.616 499.25,473.943 459.835,473.943L456.831,473.943C417.417,473.943 385.417,502.616 385.417,537.932C385.417,573.248 417.417,601.92 456.831,601.92L459.835,601.92C499.25,601.92 531.25,573.248 531.25,537.932Z" style="fill:rgb(82,198,157);stroke:black;stroke-width:15.75px;"/>
    </g>
    <g transform="matrix(1.48198,0,0,1.88272,20.9553,31.611)">
        <path d="M531.25,531.34C531.25,499.662 498.577,473.943 458.333,473.943C418.09,473.943 385.417,499.662 385.417,531.34L385.417,544.523C385.417,576.201 418.09,601.92 458.333,601.92C498.577,601.92 531.25,576.201 531.25,544.523L531.25,531.34Z" style="fill:rgb(82,198,157);stroke:black;stroke-width:16.21px;"/>
    </g>
</svg>
