<?xml version="1.0" encoding="UTF-8" standalone="no"?><!DOCTYPE svg PUBLIC "-//W3C//DTD SVG 1.1//EN" "http://www.w3.org/Graphics/SVG/1.1/DTD/svg11.dtd"><svg width="100%" height="100%" viewBox="0 0 360 360" version="1.1" xmlns="http://www.w3.org/2000/svg" xmlns:xlink="http://www.w3.org/1999/xlink" xml:space="preserve" xmlns:serif="http://www.serif.com/" style="fill-rule:evenodd;clip-rule:evenodd;stroke-linejoin:round;stroke-miterlimit:1.5;"><path d="M326.071,101.25c0,-40.31 -32.726,-73.036 -73.035,-73.036l-146.072,0c-40.309,0 -73.035,32.726 -73.035,73.036l-0,157.5c-0,40.31 32.726,73.036 73.035,73.036l146.072,-0c40.309,-0 73.035,-32.726 73.035,-73.036l0,-157.5Z" style="fill-opacity:0;"/><path d="M81.578,163.245c-8.312,-15.635 20.038,-38.807 20.452,-37.266c40.456,150.423 112.974,159.985 112.974,159.985c0,0 1.846,-170.101 2.426,-183.253c0.158,-3.571 78.283,18.685 69.958,42.547" style="fill:none;stroke:#1a1a1a;stroke-width:46.06px;"/></svg>