<?xml version="1.0" encoding="UTF-8" standalone="no"?>
<!DOCTYPE svg PUBLIC "-//W3C//DTD SVG 1.1//EN" "http://www.w3.org/Graphics/SVG/1.1/DTD/svg11.dtd">
<svg width="100%" height="100%" viewBox="0 0 1500 1500" version="1.1" xmlns="http://www.w3.org/2000/svg" xmlns:xlink="http://www.w3.org/1999/xlink" xml:space="preserve" xmlns:serif="http://www.serif.com/" style="fill-rule:evenodd;clip-rule:evenodd;stroke-linecap:round;stroke-linejoin:round;stroke-miterlimit:1.5;">
    <g transform="matrix(1.01238,0,0,1.38889,-1.49178,-318.452)">
        <path d="M1322.92,540.536C1322.92,419.607 1188.22,321.429 1022.32,321.429L421.131,321.429C255.228,321.429 120.536,419.607 120.536,540.536L120.536,1013.04C120.536,1133.96 255.228,1232.14 421.131,1232.14L1022.32,1232.14C1188.22,1232.14 1322.92,1133.96 1322.92,1013.04L1322.92,540.536Z" style="fill:rgb(23,39,219);stroke:black;stroke-width:82.18px;"/>
    </g>
    <g id="Layers" transform="matrix(44.1982,1.0284,-1.07235,46.0872,-1312.94,132.672)">
        <path d="M36.486,7.933C36.152,7.763 35.992,7.42 36,7.08C35.992,6.736 36.153,6.389 36.49,6.217C36.49,6.217 42.038,3.469 44.902,2.318C45.969,1.89 47.143,1.894 48.207,2.33L56.514,6.226C56.848,6.396 57.008,6.74 57,7.079C57.008,7.423 56.847,7.771 56.509,7.943C56.509,7.943 50.962,10.691 48.098,11.841C47.031,12.27 45.857,12.265 44.793,11.829L36.486,7.933ZM56.514,12.146C56.848,12.317 57.008,12.66 57,13C57.008,13.344 56.847,13.691 56.509,13.863C56.509,13.863 50.962,16.611 48.098,17.762C47.031,18.19 45.857,18.185 44.793,17.75L36.486,13.854C36.152,13.683 35.992,13.34 36,13.001C35.992,12.656 36.153,12.309 36.49,12.137C36.49,12.137 37.215,11.779 38.272,11.268L44.793,14.326C45.857,14.761 47.031,14.766 48.098,14.338C49.929,13.602 52.854,12.215 54.728,11.309L56.514,12.146ZM56.514,18.067C56.848,18.237 57.008,18.581 57,18.92C57.008,19.264 56.847,19.611 56.509,19.783C56.509,19.783 50.962,22.531 48.098,23.682C47.031,24.11 45.857,24.106 44.793,23.67L36.486,19.774C36.152,19.604 35.992,19.26 36,18.921C35.992,18.577 36.153,18.229 36.49,18.058C36.49,18.058 37.215,17.699 38.272,17.188L44.793,20.246C45.857,20.682 47.031,20.687 48.098,20.259C49.929,19.523 52.854,18.135 54.728,17.229L56.514,18.067Z" style="stroke:rgb(119,218,224);stroke-width:0.93px;stroke-linecap:butt;stroke-miterlimit:2;"/>
    </g>
</svg>
