<?xml version="1.0" encoding="UTF-8" standalone="no"?><!DOCTYPE svg PUBLIC "-//W3C//DTD SVG 1.1//EN" "http://www.w3.org/Graphics/SVG/1.1/DTD/svg11.dtd"><svg width="100%" height="100%" viewBox="0 0 3000 3000" version="1.1" xmlns="http://www.w3.org/2000/svg" xmlns:xlink="http://www.w3.org/1999/xlink" xml:space="preserve" xmlns:serif="http://www.serif.com/" style="fill-rule:evenodd;clip-rule:evenodd;stroke-linecap:round;stroke-linejoin:round;stroke-miterlimit:1.5;"><path d="M195.567,2608.87l899.609,-1333.77l352.021,797.914l790.091,-1208.61" style="fill:none;stroke:#3a8ff6;stroke-width:315.62px;"/><path d="M2538.46,68.408c-163.739,-0 -291.436,130.108 -291.436,283.613c-0,153.504 127.697,283.613 291.436,283.613c163.738,0 291.435,-130.109 291.435,-283.613c0,-153.505 -127.697,-283.613 -291.435,-283.613Zm-0,166.273c69.079,-0 125.163,52.578 125.163,117.34c-0,64.762 -56.084,117.34 -125.163,117.34c-69.08,0 -125.163,-52.578 -125.163,-117.34c-0,-64.762 56.083,-117.34 125.163,-117.34Z" style="fill:#3a8ff6;"/></svg>