<?xml version="1.0" encoding="UTF-8" standalone="no"?>
<!DOCTYPE svg PUBLIC "-//W3C//DTD SVG 1.1//EN" "http://www.w3.org/Graphics/SVG/1.1/DTD/svg11.dtd">
<svg width="100%" height="100%" viewBox="0 0 1500 1500" version="1.1" xmlns="http://www.w3.org/2000/svg" xmlns:xlink="http://www.w3.org/1999/xlink" xml:space="preserve" xmlns:serif="http://www.serif.com/" style="fill-rule:evenodd;clip-rule:evenodd;stroke-linejoin:round;stroke-miterlimit:1.5;">
    <g transform="matrix(0.119609,-1.35185,1.21936,0.107886,-73.8246,1408.91)">
        <ellipse cx="419.816" cy="483.17" rx="201.19" ry="223.81" style="fill:none;"/>
        <clipPath id="_clip1">
            <ellipse cx="419.816" cy="483.17" rx="201.19" ry="223.81"/>
        </clipPath>
        <g clip-path="url(#_clip1)">
            <g transform="matrix(1.08542,1.90866e-16,-2.0512e-16,1.03184,-50.7974,-78.5379)">
                <ellipse cx="419.816" cy="483.17" rx="201.19" ry="223.81" style="fill:rgb(255,0,0);stroke:rgb(95,85,254);stroke-width:110.66px;"/>
            </g>
        </g>
        <ellipse cx="419.816" cy="483.17" rx="201.19" ry="223.81" style="fill:none;stroke:black;stroke-width:70.58px;"/>
    </g>
    <g transform="matrix(-0.500175,-0.106017,-0.272397,1.28513,1609.57,-513.799)">
        <path d="M863.863,1181.98C863.863,1176.07 851.528,1171.27 836.334,1171.27L569.963,1171.27C554.77,1171.27 542.435,1176.07 542.435,1181.98L542.435,1203.41C542.435,1209.32 554.77,1214.12 569.963,1214.12L836.334,1214.12C851.528,1214.12 863.863,1209.32 863.863,1203.41L863.863,1181.98Z" style="fill:rgb(211,157,157);stroke:black;stroke-width:126.26px;"/>
    </g>
    <g transform="matrix(-0.352455,0.380959,-1.65105,-1.52752,2562.89,2747.35)">
        <path d="M863.863,1181.98C863.863,1176.07 843.056,1171.27 817.428,1171.27L588.87,1171.27C563.241,1171.27 542.435,1176.07 542.435,1181.98L542.435,1203.41C542.435,1209.32 563.241,1214.12 588.87,1214.12L817.428,1214.12C843.056,1214.12 863.863,1209.32 863.863,1203.41L863.863,1181.98Z" style="fill:rgb(211,157,157);stroke:black;stroke-width:66.49px;"/>
    </g>
    <g transform="matrix(-0.0899736,-0.382954,-1.41776,0.333097,2259.74,419.825)">
        <path d="M863.863,1181.98C863.863,1176.07 846.089,1171.27 824.197,1171.27L582.101,1171.27C560.208,1171.27 542.435,1176.07 542.435,1181.98L542.435,1203.41C542.435,1209.32 560.208,1214.12 582.101,1214.12L824.197,1214.12C846.089,1214.12 863.863,1209.32 863.863,1203.41L863.863,1181.98Z" style="fill:rgb(211,157,157);stroke:black;stroke-width:117.98px;"/>
    </g>
    <g transform="matrix(0.0994742,-1.12428,1.10639,0.0978912,-356.213,1511.64)">
        <path d="M1130.53,983.71C1021.9,983.71 932.957,1073.73 932.957,1185.55C932.957,1297.37 1021.9,1387.39 1130.53,1387.39C1239.15,1387.39 1328.1,1297.37 1328.1,1185.55C1328.1,1073.73 1239.15,983.71 1130.53,983.71ZM1130.53,1102.22C1175.21,1102.22 1211.48,1139.56 1211.48,1185.55C1211.48,1231.54 1175.21,1268.88 1130.53,1268.88C1085.85,1268.88 1049.58,1231.54 1049.58,1185.55C1049.58,1139.56 1085.85,1102.22 1130.53,1102.22Z"/>
    </g>
    <g transform="matrix(0.146781,-1.65896,1.53685,0.135977,-751.841,2696)">
        <path d="M1130.53,1016.9C1041.21,1016.9 970.543,1093.61 970.543,1185.55C970.543,1277.49 1041.21,1354.2 1130.53,1354.2C1219.85,1354.2 1290.52,1277.49 1290.52,1185.55C1290.52,1093.61 1219.85,1016.9 1130.53,1016.9L1130.53,1016.9ZM1130.53,1102.22C1175.21,1102.22 1211.48,1139.56 1211.48,1185.55C1211.48,1231.54 1175.21,1268.88 1130.53,1268.88C1085.85,1268.88 1049.58,1231.54 1049.58,1185.55C1049.58,1139.56 1085.85,1102.22 1130.53,1102.22Z"/>
    </g>
    <g transform="matrix(0.150345,-1.69924,1.56531,0.138496,-1566.56,2040.82)">
        <path d="M1130.53,1022.13C1044.07,1022.13 975.802,1096.55 975.802,1185.55C975.802,1274.55 1044.07,1348.97 1130.53,1348.97C1216.99,1348.97 1285.26,1274.55 1285.26,1185.55C1285.26,1096.55 1216.99,1022.13 1130.53,1022.13ZM1130.53,1102.22C1175.21,1102.22 1211.48,1139.56 1211.48,1185.55C1211.48,1231.54 1175.21,1268.88 1130.53,1268.88C1085.85,1268.88 1049.58,1231.54 1049.58,1185.55C1049.58,1139.56 1085.85,1102.22 1130.53,1102.22Z"/>
    </g>
</svg>
