<?xml version="1.0" encoding="UTF-8" standalone="no"?><!DOCTYPE svg PUBLIC "-//W3C//DTD SVG 1.1//EN" "http://www.w3.org/Graphics/SVG/1.1/DTD/svg11.dtd"><svg width="100%" height="100%" viewBox="0 0 3000 3000" version="1.1" xmlns="http://www.w3.org/2000/svg" xmlns:xlink="http://www.w3.org/1999/xlink" xml:space="preserve" xmlns:serif="http://www.serif.com/" style="fill-rule:evenodd;clip-rule:evenodd;stroke-linecap:round;stroke-linejoin:round;stroke-miterlimit:1.5;"><path d="M219,1412.91l1059,3" style="fill:none;stroke:#3a8ff6;stroke-width:315.62px;"/><path d="M2156.85,1132.29c-163.738,-0 -291.436,130.109 -291.436,283.613c-0,153.505 127.698,283.613 291.436,283.613c163.738,0 291.436,-130.108 291.436,-283.613c-0,-153.504 -127.698,-283.613 -291.436,-283.613Zm-0,166.273c69.079,-0 125.163,52.578 125.163,117.34c-0,64.762 -56.084,117.34 -125.163,117.34c-69.08,0 -125.163,-52.578 -125.163,-117.34c-0,-64.762 56.083,-117.34 125.163,-117.34Z" style="fill:#3a8ff6;"/><path d="M2770.97,1029.32c0,-228.121 -185.204,-413.325 -413.324,-413.325l-401.594,-0c-228.12,-0 -413.325,185.204 -413.325,413.325c0,-0 0,773.171 0,773.171c0,228.12 185.205,413.325 413.325,413.325c-0,-0 401.594,-0 401.594,-0c228.12,-0 413.324,-185.205 413.324,-413.325c0,-0 0,-773.171 0,-773.171Zm-166.272,-0c-0,-136.352 -110.701,-247.052 -247.052,-247.052l-401.594,-0c-136.352,-0 -247.052,110.7 -247.052,247.052l-0,773.171c-0,136.351 110.7,247.052 247.052,247.052l401.594,-0c136.351,-0 247.052,-110.701 247.052,-247.052l-0,-773.171Z" style="fill:#3a8ff6;"/><path d="M1235.5,1172.63c-145.237,0 -251.773,114.571 -251.773,240.273c0,125.702 106.536,240.273 251.773,240.273c145.237,0 251.773,-114.571 251.773,-240.273c-0,-125.702 -106.536,-240.273 -251.773,-240.273Zm73.779,203.026c7.475,10.906 11.721,23.651 11.721,37.247c0,13.596 -4.246,26.341 -11.721,37.248c-11.465,30.339 -37.07,55.025 -73.779,55.025c-36.709,0 -62.314,-24.686 -73.779,-55.025c-7.475,-10.907 -11.721,-23.652 -11.721,-37.248c0,-13.596 4.246,-26.341 11.721,-37.247c11.465,-30.339 37.07,-55.026 73.779,-55.026c36.709,0 62.314,24.687 73.779,55.026Z" style="fill:#3a8ff6;"/></svg>