<?xml version="1.0" encoding="UTF-8" standalone="no"?><!DOCTYPE svg PUBLIC "-//W3C//DTD SVG 1.1//EN" "http://www.w3.org/Graphics/SVG/1.1/DTD/svg11.dtd"><svg width="100%" height="100%" viewBox="0 0 3000 3000" version="1.1" xmlns="http://www.w3.org/2000/svg" xmlns:xlink="http://www.w3.org/1999/xlink" xml:space="preserve" xmlns:serif="http://www.serif.com/" style="fill-rule:evenodd;clip-rule:evenodd;stroke-linejoin:round;stroke-miterlimit:2;"><g><path d="M686,268.887c-163.738,0 -291.436,130.108 -291.436,283.613c0,153.505 127.698,283.613 291.436,283.613c163.738,0 291.436,-130.108 291.436,-283.613c0,-153.505 -127.698,-283.613 -291.436,-283.613Zm0,166.273c69.079,0 125.163,52.578 125.163,117.34c0,64.762 -56.084,117.34 -125.163,117.34c-69.079,0 -125.163,-52.578 -125.163,-117.34c0,-64.762 56.084,-117.34 125.163,-117.34Z" style="fill:#3a7af6;stroke:#3a7af6;stroke-width:1px;"/><path d="M2407.5,427.34c-163.738,-0 -291.436,130.109 -291.436,283.613c0,153.505 127.698,283.613 291.436,283.613c163.738,0 291.436,-130.108 291.436,-283.613c0,-153.504 -127.698,-283.613 -291.436,-283.613Zm0,166.273c69.079,0 125.163,52.578 125.163,117.34c0,64.762 -56.084,117.34 -125.163,117.34c-69.079,0 -125.163,-52.578 -125.163,-117.34c0,-64.762 56.084,-117.34 125.163,-117.34Z" style="fill:#3a7af6;stroke:#3a7af6;stroke-width:1px;"/><path d="M2226.77,2046.55c-163.738,0 -291.436,130.109 -291.436,283.614c0,153.504 127.698,283.613 291.436,283.613c163.738,0 291.436,-130.109 291.436,-283.613c0,-153.505 -127.698,-283.614 -291.436,-283.614Zm0,166.273c69.079,0 125.163,52.579 125.163,117.341c0,64.762 -56.084,117.34 -125.163,117.34c-69.079,0 -125.163,-52.578 -125.163,-117.34c0,-64.762 56.084,-117.341 125.163,-117.341Z" style="fill:#3a7af6;stroke:#3a7af6;stroke-width:1px;"/><path d="M639.163,2046.55c-163.738,0 -291.436,130.109 -291.436,283.614c0,153.504 127.698,283.613 291.436,283.613c163.738,0 291.436,-130.109 291.436,-283.613c0,-153.505 -127.698,-283.614 -291.436,-283.614Zm0,166.273c69.079,0 125.163,52.579 125.163,117.341c0,64.762 -56.084,117.34 -125.163,117.34c-69.079,0 -125.163,-52.578 -125.163,-117.34c0,-64.762 56.084,-117.341 125.163,-117.341Z" style="fill:#3a7af6;stroke:#3a7af6;stroke-width:1px;"/><ellipse cx="1462.5" cy="1467" rx="945" ry="914.5" style="fill:none;stroke:#3a7af6;stroke-width:290px;stroke-linecap:round;stroke-miterlimit:1.5;"/><ellipse cx="1462.5" cy="1467" rx="282" ry="267.5" style="fill:#3a7af6;stroke:#3a7af6;stroke-width:95.64px;stroke-linecap:round;stroke-miterlimit:1.5;"/></g></svg>