<?xml version="1.0" encoding="UTF-8" standalone="no"?><!DOCTYPE svg PUBLIC "-//W3C//DTD SVG 1.1//EN" "http://www.w3.org/Graphics/SVG/1.1/DTD/svg11.dtd"><svg width="100%" height="100%" viewBox="0 0 3000 3000" version="1.1" xmlns="http://www.w3.org/2000/svg" xmlns:xlink="http://www.w3.org/1999/xlink" xml:space="preserve" xmlns:serif="http://www.serif.com/" style="fill-rule:evenodd;clip-rule:evenodd;stroke-linejoin:round;stroke-miterlimit:2;"><g><path d="M2934,828.802c0,-143.164 -56.872,-280.465 -158.104,-381.698c-101.233,-101.232 -238.534,-158.104 -381.698,-158.104l-1797.72,0c-294.633,0 -533.48,238.847 -533.48,533.48l-0,1391.52c-0,152.501 60.581,298.756 168.415,406.59c107.834,107.834 254.089,168.415 406.59,168.415l1759.65,0c296.216,-0 536.347,-240.131 536.347,-536.347l0,-1423.85Zm-256,0l0,1423.85c-0,154.831 -125.516,280.347 -280.347,280.347c-0,0 -1759.65,0 -1759.65,0c-84.606,0 -165.746,-33.609 -225.571,-93.434c-59.825,-59.825 -93.434,-140.965 -93.434,-225.571l0,-1391.52c-0,-153.248 124.232,-277.48 277.48,-277.48c0,0 1797.72,0 1797.72,0c75.269,0 147.455,29.901 200.678,83.124c53.223,53.223 83.124,125.409 83.124,200.678Z" style="fill:#262626;"/><path d="M1556,1086c0,-98.517 -79.983,-178.5 -178.5,-178.5l-527,-0c-98.517,-0 -178.5,79.983 -178.5,178.5l0,357c0,98.517 79.983,178.5 178.5,178.5l527,0c98.517,0 178.5,-79.983 178.5,-178.5l0,-357Zm-684,21.5l0,314l484,0l0,-314l-484,0Z" style="fill:#262626;"/><path d="M2387.5,2027.5c0,-35.047 -28.453,-63.5 -63.5,-63.5l-1648,0c-35.047,0 -63.5,28.453 -63.5,63.5l0,127c0,35.047 28.453,63.5 63.5,63.5l1648,0c35.047,0 63.5,-28.453 63.5,-63.5l0,-127Z" style="fill:#262626;"/><path d="M2367,1478.25c0,-33.529 -27.221,-60.75 -60.75,-60.75l-465.5,0c-33.529,0 -60.75,27.221 -60.75,60.75l-0,121.5c-0,33.529 27.221,60.75 60.75,60.75l465.5,0c33.529,0 60.75,-27.221 60.75,-60.75l0,-121.5Z" style="fill:#262626;"/><path d="M2367,967.125c0,-32.908 -26.717,-59.625 -59.625,-59.625l-467.75,0c-32.908,0 -59.625,26.717 -59.625,59.625l-0,119.25c-0,32.908 26.717,59.625 59.625,59.625l467.75,0c32.908,0 59.625,-26.717 59.625,-59.625l0,-119.25Z" style="fill:#262626;"/></g></svg>